<svg height="64" viewBox="0 0 64 64" width="64" xmlns="http://www.w3.org/2000/svg"><g id="Flat"><path d="m336 200-42.38 27.24-69.62 44.76-24-24v96h-136l-24-72v-120l56-24h80l56 16v72l48-16 8-24 16 8 16-8z" fill="#d4e4f0"/><path d="m128 168h16v176h-16z" fill="#c1d7e6"/><path d="m176 128-40 64-40-64 16-8h48z" fill="#4384c3"/><path d="m112 120-16 8 21.935 35.097 18.065-27.097z" fill="#529ddf"/><path d="m160 120 16 8-21.935 35.097-18.065-27.097z" fill="#529ddf"/><path d="m112.29 344h-16.58l-23.43-85.9a7.81641 7.81641 0 0 1 -.28-2.1v-24h16v22.93z" fill="#c1d7e6"/><circle cx="184" cy="192" fill="#4f5761" r="16"/><path d="m96 176h-16v-40a24.02687 24.02687 0 0 1 24-24h8v8l-16 8z" fill="#e04446"/><path d="m192 192h-16v-64l-16-8v-8h8a24 24 0 0 1 24 24z" fill="#e04446"/><path d="m112 216h-16v-24a8 8 0 0 0 -16 0v24h-16v-24a24 24 0 0 1 48 0z" fill="#e04446"/><path d="m336 200-42.38 27.24-13.62-27.24 8-24 16 8 16-8z" fill="#fdc5ca"/><path d="m216 224v40l-16-16v-24z" fill="#c1d7e6"/><path d="m192 88-8 8-8 16h-16v8l-8.78 5.85-15.22 10.15-24-16v-72h64l8 24z" fill="#fdc5ca"/><path d="m168 56h-16l-24 40h-16v-72h88a32 32 0 0 1 -32 32z" fill="#ba8b5d"/><path d="m160 112v8l-8.78 5.85-10.53-10.54 11.31-11.31z" fill="#fc979e"/><g fill="#68737f"><circle cx="184" cy="192" r="8"/><path d="m64 192h16v24h-16z"/><path d="m96 192h16v24h-16z"/><path d="m56 456h400v32h-400z"/></g><path d="m40 328a16 16 0 0 1 16 16v144a0 0 0 0 1 0 0h-32a0 0 0 0 1 0 0v-144a16 16 0 0 1 16-16z" fill="#ba8b5d"/><path d="m488 488h-32v-199.10293a15.9999 15.9999 0 0 1 1.5125-6.79059v-.00007c7.25936-15.48753 30.4875-10.31384 30.4875 6.79059z" fill="#ba8b5d"/><path d="m56 408h296l98.95448-197.909a18.25486 18.25486 0 0 1 16.32764-10.091 18.25485 18.25485 0 0 1 16.529 26.00283l-107.81112 229.99717h-320z" fill="#d4e4f0"/><path d="m56 344h192v64h-192z" fill="#529ddf"/><path d="m248 320h48v88h-48z" fill="#d4e4f0"/><path d="m438 236-86 172h-56v-88l24-32h32l16-8-8-16v-16l-8-16 32-8 14.93-14.93z" fill="#7ab355"/><path d="m248 378.83v29.17h-8v-8a31.87162 31.87162 0 0 1 8-21.17z" fill="#4384c3"/><path d="m391.58008 327.58a25.14794 25.14794 0 0 1 -1.89014 5.04l-37.68994 75.38h-56v-40h16.92993l31.89014-58.76a25.27546 25.27546 0 0 1 15.97-12.45z" fill="#699949"/><path d="m296 368v40h-48v-29.17a31.95411 31.95411 0 0 1 24-10.83z" fill="#c1d7e6"/><path d="m438 236-46 92-.42-.42-30.79-30.79-8.79-8.79 16-8-8-16v-16l-8-16 32-8 14.93-14.93z" fill="#fdc5ca"/><path d="m388.83008 334.34-15.91016 31.81-20.91992 41.85h-104a31.99119 31.99119 0 0 1 32-32h40l16.45-31.73 15.02-28.96a20.96435 20.96435 0 0 1 37.36011 19.03z" fill="#fdc5ca"/><path d="m388.83008 334.34-15.91016 31.81-36.47-21.88 15.02-28.96a20.96435 20.96435 0 0 1 37.36011 19.03z" fill="#7ab355"/><path d="m416 280-8-64-8.827-6.74188a30.76012 30.76012 0 0 1 -6.923-41.50812l58.70448 42.341z" fill="#ba8b5d"/></g></svg>